PathFileType	4	(X/Y/Z)	s11c0402.trc
DataRate	CameraRate	NumFrames	NumMarkers	Units	OrigDataRate	OrigDataStartFrame	OrigNumFrames
200	200	4	48	mm	200	1500	2000
Frame#	Time	racr			lacr			c7			jug			rlel			rdr			llel			ldr			s2			lic			ric			lasi			rasi			rpsi			lpsi			rgt			lgt			rth1			rth2			rth3			rth4			rlfc			rmfc			rsh1			rsh2			rsh3			rsh4			rlmal			rcal			rtoe			rmt5			lth1			lth2			lth4			lth3			llfc			lmfc			llmal			lcal			lmt5			lsh1			lsh2			lsh3			lsh4			ltoe			SBIKE			LBIKE			RBIKE			
		X1	Y1	Z1	X2	Y2	Z2	X3	Y3	Z3	X4	Y4	Z4	X5	Y5	Z5	X6	Y6	Z6	X7	Y7	Z7	X8	Y8	Z8	X9	Y9	Z9	X10	Y10	Z10	X11	Y11	Z11	X12	Y12	Z12	X13	Y13	Z13	X14	Y14	Z14	X15	Y15	Z15	X16	Y16	Z16	X17	Y17	Z17	X18	Y18	Z18	X19	Y19	Z19	X20	Y20	Z20	X21	Y21	Z21	X22	Y22	Z22	X23	Y23	Z23	X24	Y24	Z24	X25	Y25	Z25	X26	Y26	Z26	X27	Y27	Z27	X28	Y28	Z28	X29	Y29	Z29	X30	Y30	Z30	X31	Y31	Z31	X32	Y32	Z32	X33	Y33	Z33	X34	Y34	Z34	X35	Y35	Z35	X36	Y36	Z36	X37	Y37	Z37	X38	Y38	Z38	X39	Y39	Z39	X40	Y40	Z40	X41	Y41	Z41	X42	Y42	Z42	X43	Y43	Z43	X44	Y44	Z44	X45	Y45	Z45	X46	Y46	Z46	X47	Y47	Z47	X48	Y48	Z48	
1500	7.5000	834.082307	1338.273115	-123.008359	774.104691	1352.992763	-469.604474	777.906959	1448.907935	-288.384559	771.684092	1264.094731	-303.458315	634.122060	1162.769122	20.987479	774.495476	964.947638	-74.713591	540.357881	1139.456830	-570.352991	756.194972	947.664445	-472.566048	176.545750	1286.615944	-238.979864	386.834513	1296.484228	-450.901948	399.849053	1222.076173	-54.848304	406.147598	1214.083156	-406.826205	412.652309	1164.324207	-96.749136	242.280951	1342.596737	-176.669716	229.323050	1352.023778	-268.095690	275.690905	1094.756221	-47.072216	310.447678	1187.164569	-467.053667	290.713687	964.756903	-39.105872	321.726679	881.610313	-50.023823	307.945555	797.071337	-70.204581	357.881980	886.443005	-57.093994	328.671201	695.181718	-97.586848	322.158637	679.733154	-225.109389	266.472421	556.144026	-79.014312	257.806745	468.558645	-93.958875	209.299635	397.023872	-93.565359	284.097571	462.175621	-122.456149	157.746791	268.017439	-102.431597	95.828397	281.127867	-150.470679	340.510286	128.491446	-148.299963	266.043977	132.613451	-78.666869	432.549407	1102.903453	-486.228968	507.555625	1067.490001	-481.224272	533.794094	1093.055573	-464.344793	570.676955	993.172536	-480.942872	655.644052	898.407239	-464.941737	666.357385	881.977961	-333.184976	315.757683	644.276528	-425.979102	259.266877	669.543994	-389.455708	312.624631	468.140060	-450.890908	560.588651	827.779820	-478.512365	511.656282	758.870942	-461.183032	432.451038	720.764078	-453.200117	534.830714	736.488832	-440.648439	378.039441	395.411412	-386.069420	-214.778532	953.688548	-255.726264	-17.755760	80.989829	-460.868608	-17.780496	80.789476	-61.928376	
1501	7.5050	834.453228	1338.487850	-125.236670	773.508764	1351.172397	-471.377674	777.476866	1447.657630	-290.836148	770.887197	1262.664847	-304.831588	635.719988	1163.453269	21.107000	774.425273	964.808587	-74.666393	538.467590	1137.670599	-570.616887	756.737997	948.212403	-472.705694	178.516916	1286.044713	-239.809187	384.517143	1297.294105	-451.053640	401.446972	1222.153415	-55.836894	404.932957	1215.174275	-407.014008	413.343098	1164.439356	-97.888735	241.453958	1343.911756	-174.213500	228.480952	1352.661245	-266.502128	276.394314	1095.398993	-46.443797	308.782988	1187.637310	-467.030268	290.440665	966.444972	-38.626896	321.292291	882.968552	-49.763404	307.454782	798.638451	-69.771558	357.584077	887.702582	-56.368525	327.525621	696.087849	-96.267157	323.231584	680.731785	-223.628853	264.118446	557.427013	-78.398127	254.622833	470.772891	-93.118384	204.316909	399.467513	-93.352026	280.390921	463.362680	-121.842916	150.734155	271.739180	-102.338668	89.021567	286.491132	-150.331457	330.179706	127.693782	-148.197496	255.543986	133.748564	-78.371930	432.144953	1103.246668	-485.971451	507.794229	1068.744574	-480.735201	534.206796	1094.915115	-464.501501	572.833962	994.564548	-478.817202	658.685733	903.303357	-464.265581	670.090040	887.035110	-331.606931	323.231426	643.601390	-426.308137	265.097949	667.301145	-389.402169	323.302391	467.346785	-451.051777	565.895394	830.437995	-477.319760	518.454469	760.233455	-459.975643	440.005072	720.542420	-452.737566	541.861474	738.874732	-438.914028	390.143270	396.093682	-386.030364	-214.852291	953.673858	-255.889946	-17.782299	80.979715	-460.912215	-17.805871	80.779815	-61.960663	
1502	7.5100	834.721082	1338.315232	-127.302239	773.046874	1348.975423	-472.920050	777.096053	1446.042958	-292.945978	770.148293	1261.145111	-306.071821	637.240154	1163.762687	21.402799	774.228933	964.629501	-74.837771	536.647441	1135.933521	-571.027557	757.259093	948.754258	-472.912885	178.084154	1286.656391	-238.055288	382.174468	1298.185549	-451.131085	402.862962	1222.319196	-57.085360	403.516618	1216.356087	-407.541223	414.097663	1164.605081	-99.051274	241.548296	1345.201978	-173.182220	227.479883	1353.822562	-265.571788	277.286510	1096.454691	-45.927148	306.820037	1188.066433	-467.423302	291.159027	968.302501	-38.681998	321.762789	884.566238	-49.518585	307.093709	800.414171	-70.069264	358.312509	889.097603	-55.793319	327.520410	697.626064	-94.912569	326.029585	681.769255	-222.091758	263.370252	559.159440	-77.787865	252.129045	472.689745	-92.691821	200.443272	402.413208	-93.152981	277.743645	464.966314	-121.497258	144.275005	275.875749	-102.532217	83.210288	292.381951	-150.734256	319.968674	127.129318	-148.065028	245.560215	135.736327	-78.384593	431.569000	1103.368660	-485.722590	507.874387	1069.695883	-480.291686	528.941006	1095.845509	-467.518107	573.911428	995.814442	-476.918834	662.449067	908.136411	-461.750449	673.101874	891.873497	-330.201184	330.021817	641.813964	-426.142307	270.572655	664.295602	-389.128674	333.791277	465.838331	-451.102637	570.682488	832.093953	-476.014300	524.529199	760.992046	-458.711683	446.813145	719.782971	-452.109010	548.084417	740.418641	-437.047174	402.033870	396.098887	-386.042584	-214.926779	953.799643	-256.196562	-17.778349	80.978704	-460.913506	-17.826579	80.806673	-61.970479	
1503	7.5150	834.908141	1337.632639	-129.121522	772.740899	1346.397458	-474.329809	776.782183	1444.239233	-294.945156	769.303608	1259.414145	-307.156493	638.591660	1164.149347	21.995153	773.960561	964.321835	-75.155856	534.967499	1134.364220	-571.761832	757.619434	949.197165	-473.173422	177.576514	1287.744801	-236.795667	379.887189	1299.100379	-451.324176	404.257505	1222.666437	-58.417647	401.939052	1217.572659	-408.313636	414.746415	1164.840656	-100.274519	241.602701	1346.783422	-172.398013	226.512106	1355.094005	-264.907053	278.432198	1097.566735	-45.424437	304.584150	1188.839878	-468.063627	292.538139	970.153909	-38.944333	323.168373	886.495084	-49.295086	308.486750	802.375118	-69.965363	359.730517	890.985101	-55.053361	329.036552	699.506957	-93.296946	330.571957	682.718473	-220.434898	263.930217	561.214837	-77.050206	250.767684	475.003178	-92.374241	197.540761	405.881544	-92.895877	276.170651	466.836944	-121.110025	138.455548	280.843863	-102.767682	78.283384	299.259824	-151.138718	309.794084	127.048637	-147.883545	235.825015	137.757147	-78.234493	430.804231	1103.454576	-485.491834	506.572433	1070.735585	-480.621553	528.280379	1097.256607	-468.170363	573.981915	996.897750	-475.246450	664.556193	912.811423	-460.526385	675.197398	896.647359	-328.781939	336.197527	639.152322	-425.759277	275.471388	660.499806	-388.796003	343.870434	464.136533	-451.504310	574.839917	832.841522	-474.574187	529.607177	761.075869	-457.336220	452.475421	718.625197	-451.533639	553.099563	741.266724	-435.119894	413.863850	395.793850	-386.122514	-214.990568	953.658935	-256.135032	-17.776638	80.984008	-460.929845	-17.848915	80.822760	-62.003134	
